Coordinates
version=1
nRows=8
nColumns=40
inDegrees=yes

Units are S.I. units (second, meters, Newtons, ...)
Angles are in degrees.

endheader
time	pelvis_tilt	pelvis_list	pelvis_rotation	pelvis_tx	pelvis_ty	pelvis_tz	hip_flexion_r	hip_adduction_r	hip_rotation_r	knee_angle_r	knee_angle_r_beta	ankle_angle_r	subtalar_angle_r	mtp_angle_r	hip_flexion_l	hip_adduction_l	hip_rotation_l	knee_angle_l	knee_angle_l_beta	ankle_angle_l	subtalar_angle_l	mtp_angle_l	lumbar_extension	lumbar_bending	lumbar_rotation	arm_flex_r	arm_add_r	arm_rot_r	elbow_flex_r	pro_sup_r	wrist_flex_r	wrist_dev_r	arm_flex_l	arm_add_l	arm_rot_l	elbow_flex_l	pro_sup_l	wrist_flex_l	wrist_dev_l
     33.46000000	     -1.68046226	     -5.87594554	     -3.64308368	      0.99880457	      0.92690509	      0.58290959	     12.74771122	      6.87492581	     -8.48892596	     21.81848350	     21.81848350	     12.36420845	     -4.79640791	     -2.38388803	     23.14161952	    -14.31028110	      0.07137442	     68.10249580	     68.10249580	      9.31073851	    -19.53309583	     21.71806088	    -11.14554517	      8.40513076	      0.50342557	      1.89411167	    -14.48068995	    -12.72078514	     32.33380124	     45.96769558	      0.00000000	      0.00000000	     17.39762578	    -10.32594549	     -9.92101641	     56.36580570	     46.45549164	      0.00000000	      0.00000000
     33.47992857	     -1.43443076	     -5.82798751	     -2.98003791	      0.99806966	      0.92557181	      0.58440971	     12.66972134	      6.88222150	     -8.52618755	     22.83094921	     22.83094921	     13.05375467	     -5.90125027	     -2.46740973	     24.33093737	    -14.39252441	      0.26305672	     67.50706625	     67.50706625	     10.92999019	    -19.59199157	     22.26085588	    -11.33997418	      8.05784780	     -0.02515276	      4.12318332	    -14.35764444	    -12.87138492	     33.42512343	     45.95266194	      0.00000000	      0.00000000	     15.07114021	    -10.00850761	     -9.26425558	     53.03120496	     46.36434538	      0.00000000	      0.00000000
     33.49985714	     -1.17564327	     -5.79968436	     -2.32820938	      0.99723897	      0.92426678	      0.58591891	     12.54256334	      6.95020709	     -8.45807901	     23.79565883	     23.79565883	     13.90521112	     -7.04588669	     -1.96201319	     25.48789419	    -14.44337136	      0.43567464	     66.68115641	     66.68115641	     12.78452161	    -19.62602277	     23.70146157	    -11.51182280	      7.74106742	      0.31233109	      5.86687271	    -14.54940654	    -12.96884451	     34.51546157	     45.93492656	      0.00000000	      0.00000000	     14.33243539	     -9.25457620	     -7.74206414	     46.42129361	     46.23014132	      0.00000000	      0.00000000
     33.51978571	     -0.99479650	     -5.75169578	     -1.61653925	      0.99626526	      0.92283112	      0.58726367	     12.47702512	      6.96557152	     -8.58836671	     24.69962873	     24.69962873	     14.57824446	     -8.05920861	     -1.91247664	     26.64142839	    -14.40933305	      0.61200314	     65.49261690	     65.49261690	     14.05167082	    -19.64740768	     23.83169560	    -11.68353013	      7.38918837	     -0.35225759	      8.13845708	    -14.33939856	    -13.10190559	     36.29259522	     45.88860847	      0.00000000	      0.00000000	     12.10222621	     -9.00448288	     -7.02050094	     42.72549306	     46.13138272	      0.00000000	      0.00000000
     33.53971429	     -0.82553712	     -5.74557695	     -0.96812698	      0.99512311	      0.92159368	      0.58855072	     12.36529199	      7.04484080	     -8.68791832	     25.48239731	     25.48239731	     15.41035363	     -8.84906415	     -1.13458635	     27.68189091	    -14.35483190	      0.78242817	     63.96456098	     63.96456098	     15.20522690	    -19.65347488	     24.27526585	    -11.82616068	      7.08947954	      0.25667083	      9.44960602	    -14.72487821	    -13.02524056	     38.65131025	     45.80558941	      0.00000000	      0.00000000	     11.98380850	     -8.24137302	     -5.28058482	     35.34291275	     45.97400944	      0.00000000	      0.00000000
     33.55964286	     -0.75855108	     -5.68243836	     -0.30372147	      0.99383599	      0.92043348	      0.58958110	     12.28554960	      7.02880113	     -8.91205605	     26.08233401	     26.08233401	     15.93591951	     -9.53019865	     -1.14306426	     28.67603528	    -14.16485990	      0.93357321	     62.04772439	     62.04772439	     15.89584329	    -19.65310053	     24.13661262	    -11.95229739	      6.71129212	     -0.38967227	     11.81110836	    -14.48786980	    -13.15828462	     40.76182872	     45.74623910	      0.00000000	      0.00000000	      9.59299365	     -8.09494894	     -4.84307488	     32.76806808	     45.89103670	      0.00000000	      0.00000000
     33.57957143	     -0.78533447	     -5.63680200	      0.33529642	      0.99242346	      0.91954096	      0.59039358	     12.16107324	      7.03052219	     -9.17742242	     26.37519675	     26.37519675	     16.38133927	    -10.02523024	     -1.01366262	     29.60970764	    -13.90223162	      1.13607971	     59.78803753	     59.78803753	     16.28192512	    -19.64329819	     23.90596824	    -11.98051091	      6.38515078	     -0.86143290	     14.01946597	    -14.30869317	    -13.12094396	     43.19230282	     45.66549012	      0.00000000	      0.00000000	      7.50941358	     -7.89671330	     -4.29153556	     29.82367428	     45.79426925	      0.00000000	      0.00000000
     33.59950000	     -0.95867483	     -5.67956012	      0.88148010	      0.99090980	      0.91894989	      0.59097116	     12.07082412	      7.10064429	     -9.52269699	     26.41184824	     26.41184824	     16.60849968	    -10.27544504	     -1.01154799	     30.50066919	    -13.67074202	      1.36930411	     57.18755138	     57.18755138	     16.48611876	    -19.60482006	     23.95760362	    -11.84016762	      6.09933904	     -0.07767449	     15.78834636	    -14.93035933	    -13.21240175	     44.33831295	     45.63872126	      0.00000000	      0.00000000	      5.64370598	     -7.38107870	     -4.13625577	     28.69500288	     45.74283698	      0.00000000	      0.00000000
